<?xml version="1.0" standalone="no"?>
<!DOCTYPE svg PUBLIC "-//W3C//DTD SVG 20010904//EN"
 "http://www.w3.org/TR/2001/REC-SVG-20010904/DTD/svg10.dtd">
<svg version="1.0" xmlns="http://www.w3.org/2000/svg"
 width="512.000000pt" height="512.000000pt" viewBox="0 0 512.000000 512.000000"
 preserveAspectRatio="xMidYMid meet">

<g transform="translate(0.000000,512.000000) scale(0.100000,-0.100000)"
fill="#000000" stroke="none">
<path d="M990 4098 c0 -3 24 -41 53 -84 35 -53 64 -112 86 -178 30 -91 34
-116 43 -295 16 -292 17 -2059 1 -2136 -21 -100 -76 -197 -156 -279 -40 -39
-85 -81 -102 -93 l-30 -21 95 19 c167 34 551 97 665 110 162 17 425 0 569 -36
27 -7 24 -2 -42 86 -150 199 -263 407 -288 529 -18 85 -23 304 -11 424 l9 79
180 188 c100 104 184 189 187 189 18 -1 502 -940 574 -1112 20 -48 41 -115 47
-149 13 -70 5 -180 -17 -221 l-14 -28 55 0 c45 0 950 42 1116 52 l45 3 -89 49
c-205 112 -444 292 -573 429 -149 160 -424 597 -687 1092 l-106 200 148 148
c281 283 590 549 787 680 150 99 423 234 580 287 l120 40 -370 -6 c-334 -6
-857 5 -1043 22 l-63 6 24 -49 c31 -61 57 -147 57 -190 0 -49 -27 -96 -159
-271 -172 -228 -816 -993 -825 -980 -2 2 3 95 10 208 35 541 81 852 147 988
40 83 139 190 214 230 l58 31 -375 -6 c-335 -5 -400 -3 -604 16 -126 12 -249
25 -273 28 -24 3 -43 4 -43 1z"/>
</g>
</svg>
